# xmcd
#
# Track frame offsets:
#	150
#	17737
#	32623
#	52102
#	64233
#	81622
#	102006
#	118733
#	133386
#	145748
#	157309
#	175694
#
# Disc length: 2500 seconds
#
# Revision: 1
# Processed by: cddbd v1.5.2PL0 Copyright (c) Steve Scherf et al.
# Submitted via: audiograbber 1.83.01
#
DISCID=af09c20c
DTITLE=Della Mae - Headlight
DYEAR=2020
DGENRE=Country
TTITLE0=Headlight
TTITLE1=Change
TTITLE2=The Long Game
TTITLE3=I Like It When You're Home
TTITLE4=The Odds of Getting Even
TTITLE5=Wild One
TTITLE6=It's About Time
TTITLE7=Waiting for You
TTITLE8=Peg Monster
TTITLE9=First Song Dancer
TTITLE10=Working
TTITLE11=I Can't Pretend
EXTD=
EXTT0=
EXTT1=
EXTT2=
EXTT3=
EXTT4=
EXTT5=
EXTT6=
EXTT7=
EXTT8=
EXTT9=
EXTT10=
EXTT11=
PLAYORDER=
